<svg width="24" height="24" viewBox="0 0 24 24" fill="none" xmlns="http://www.w3.org/2000/svg">
<path fill-rule="evenodd" clip-rule="evenodd" d="M10.464 3.28201C10.6429 3.06731 10.8649 2.8925 11.1156 2.76887C11.3663 2.64524 11.6401 2.57552 11.9193 2.56421C12.1986 2.55291 12.4772 2.60026 12.737 2.70323C12.9969 2.80619 13.2322 2.96248 13.428 3.16201L13.536 3.28201L17.468 8.00001H20.453C20.6628 7.99956 20.8704 8.04345 21.0621 8.1288C21.2539 8.21415 21.4254 8.33904 21.5655 8.49528C21.7056 8.65153 21.8111 8.8356 21.8751 9.03546C21.9391 9.23531 21.9602 9.44644 21.937 9.655L21.845 10.421L21.745 11.161L21.663 11.715L21.568 12.31L21.46 12.935L21.338 13.583L21.202 14.244C21.13 14.5773 21.0526 14.9103 20.97 15.243C20.7486 16.121 20.4707 16.9838 20.138 17.826L19.917 18.366L19.703 18.854L19.501 19.288L19.407 19.482L19.158 19.972C18.838 20.582 18.234 20.942 17.595 20.994L17.435 21H6.55497C6.20537 21.0026 5.86163 20.9102 5.56045 20.7327C5.25928 20.5552 5.01198 20.2991 4.84497 19.992L4.61297 19.542L4.43297 19.172L4.33797 18.967L4.13797 18.518C3.68127 17.4575 3.31074 16.362 3.02997 15.242C2.97568 15.0246 2.92368 14.8065 2.87397 14.588L2.73197 13.94L2.60497 13.306L2.49297 12.693L2.39297 12.106L2.30597 11.552L2.23197 11.039L2.14197 10.356L2.07597 9.80001L2.05897 9.64701C2.03829 9.45054 2.05688 9.25193 2.11366 9.06272C2.17044 8.87351 2.26428 8.69748 2.38971 8.54486C2.51515 8.39225 2.66969 8.26611 2.84433 8.17377C3.01897 8.08143 3.21022 8.02475 3.40697 8.00701L3.54297 8.00001H6.53197L10.464 3.28201ZM9.96097 12.722C9.89333 12.4861 9.74126 12.2832 9.53375 12.1522C9.32623 12.0211 9.07775 11.9709 8.83563 12.0112C8.59351 12.0514 8.37465 12.1793 8.22074 12.3705C8.06682 12.5617 7.9886 12.8029 8.00097 13.048L8.01397 13.164L8.51397 16.164L8.53897 16.278C8.60662 16.5139 8.75868 16.7168 8.9662 16.8479C9.17371 16.9789 9.42219 17.0291 9.66432 16.9888C9.90644 16.9486 10.1253 16.8207 10.2792 16.6295C10.4331 16.4383 10.5113 16.1971 10.499 15.952L10.486 15.836L9.98597 12.836L9.96097 12.722ZM15.164 12.014C14.9223 11.9737 14.6742 12.0235 14.4668 12.154C14.2594 12.2845 14.1072 12.4867 14.039 12.722L14.014 12.836L13.514 15.836C13.4722 16.0876 13.5282 16.3456 13.6704 16.5573C13.8127 16.769 14.0304 16.9184 14.2791 16.9749C14.5278 17.0313 14.7887 16.9906 15.0084 16.8611C15.2281 16.7315 15.39 16.523 15.461 16.278L15.486 16.164L15.986 13.164C16.0293 12.9025 15.9671 12.6345 15.813 12.4189C15.6589 12.2032 15.4254 12.0576 15.164 12.014ZM12 4.56201L9.13497 8.00001H14.865L12 4.56201Z" fill="white"/>
</svg>
