<svg width="20" height="22" viewBox="0 0 20 22" fill="none" xmlns="http://www.w3.org/2000/svg">
<path fill-rule="evenodd" clip-rule="evenodd" d="M10.5929 21.258L10.5819 21.26L10.5109 21.295L10.4909 21.299L10.4769 21.295L10.4059 21.26C10.3953 21.2567 10.3873 21.2583 10.3819 21.265L10.3779 21.275L10.3609 21.703L10.3659 21.723L10.3759 21.736L10.4799 21.81L10.4949 21.814L10.5069 21.81L10.6109 21.736L10.6229 21.72L10.6269 21.703L10.6099 21.276C10.6073 21.2653 10.6016 21.2593 10.5929 21.258ZM10.8579 21.145L10.8449 21.147L10.6599 21.24L10.6499 21.25L10.6469 21.261L10.6649 21.691L10.6699 21.703L10.6779 21.71L10.8789 21.803C10.8916 21.8063 10.9013 21.8037 10.9079 21.795L10.9119 21.781L10.8779 21.167C10.8746 21.155 10.8679 21.1477 10.8579 21.145ZM10.1429 21.147C10.1385 21.1443 10.1333 21.1435 10.1282 21.1446C10.1232 21.1457 10.1188 21.1487 10.1159 21.153L10.1099 21.167L10.0759 21.781C10.0766 21.793 10.0823 21.801 10.0929 21.805L10.1079 21.803L10.3089 21.71L10.3189 21.702L10.3229 21.691L10.3399 21.261L10.3369 21.249L10.3269 21.239L10.1429 21.147Z" fill="#E99C28"/>
<path fill-rule="evenodd" clip-rule="evenodd" d="M8.46397 1.282C8.64293 1.0673 8.86491 0.892497 9.11559 0.768864C9.36626 0.645231 9.64007 0.575513 9.91934 0.564206C10.1986 0.552899 10.4772 0.600255 10.737 0.703219C10.9969 0.806184 11.2322 0.96247 11.428 1.162L11.536 1.282L15.468 6H18.453C18.6628 5.99955 18.8704 6.04344 19.0621 6.12879C19.2539 6.21414 19.4254 6.33903 19.5655 6.49528C19.7056 6.65152 19.8111 6.8356 19.8751 7.03545C19.9391 7.23531 19.9602 7.44643 19.937 7.655L19.845 8.421L19.745 9.161L19.663 9.715L19.568 10.31L19.46 10.935L19.338 11.583L19.202 12.244C19.13 12.5773 19.0526 12.9103 18.97 13.243C18.7486 14.121 18.4707 14.9838 18.138 15.826L17.917 16.366L17.703 16.854L17.501 17.288L17.407 17.482L17.158 17.972C16.838 18.582 16.234 18.942 15.595 18.994L15.435 19H4.55497C4.20537 19.0026 3.86163 18.9102 3.56045 18.7327C3.25928 18.5551 3.01198 18.2991 2.84497 17.992L2.61297 17.542L2.43297 17.172L2.33797 16.967L2.13797 16.518C1.68127 15.4575 1.31074 14.362 1.02997 13.242C0.975684 13.0246 0.923681 12.8065 0.873972 12.588L0.731973 11.94L0.604972 11.306L0.492972 10.693L0.392972 10.106L0.305972 9.552L0.231973 9.039L0.141972 8.356L0.0759724 7.8L0.0589724 7.647C0.0382869 7.45054 0.0568751 7.25192 0.113656 7.06271C0.170436 6.8735 0.264275 6.69747 0.389714 6.54486C0.515153 6.39225 0.669687 6.2661 0.844326 6.17376C1.01897 6.08143 1.21022 6.02474 1.40697 6.007L1.54297 6H4.53197L8.46397 1.282ZM7.96097 10.722C7.89333 10.4861 7.74126 10.2832 7.53375 10.1521C7.32623 10.0211 7.07775 9.97088 6.83563 10.0112C6.59351 10.0514 6.37465 10.1793 6.22074 10.3705C6.06682 10.5617 5.9886 10.8029 6.00097 11.048L6.01397 11.164L6.51397 14.164L6.53897 14.278C6.60662 14.5139 6.75868 14.7168 6.9662 14.8478C7.17371 14.9789 7.42219 15.0291 7.66432 14.9888C7.90644 14.9486 8.12529 14.8207 8.27921 14.6295C8.43312 14.4383 8.51134 14.1971 8.49897 13.952L8.48597 13.836L7.98597 10.836L7.96097 10.722ZM13.164 10.014C12.9223 9.97368 12.6742 10.0235 12.4668 10.154C12.2594 10.2845 12.1072 10.4867 12.039 10.722L12.014 10.836L11.514 13.836C11.4722 14.0876 11.5282 14.3456 11.6704 14.5573C11.8127 14.769 12.0304 14.9184 12.2791 14.9748C12.5278 15.0313 12.7887 14.9906 13.0084 14.8611C13.2281 14.7315 13.39 14.523 13.461 14.278L13.486 14.164L13.986 11.164C14.0293 10.9025 13.9671 10.6345 13.813 10.4189C13.6589 10.2032 13.4254 10.0576 13.164 10.014ZM9.99997 2.562L7.13497 6H12.865L9.99997 2.562Z" fill="#E99C28"/>
</svg>
