<svg width="129" height="23" viewBox="0 0 129 23" fill="none" xmlns="http://www.w3.org/2000/svg" {...props}>
<mask id="path-1-outside-1_8_21" maskUnits="userSpaceOnUse" x="-1" y="-1" width="131" height="25" fill="black">
<rect fill="white" x="-1" y="-1" width="131" height="25" />
<path d="M0.9 22V0.999999H7.5C9.82 0.999999 11.84 1.44 13.56 2.32C15.28 3.2 16.62 4.43 17.58 6.01C18.54 7.57 19.02 9.4 19.02 11.5C19.02 13.6 18.54 15.44 17.58 17.02C16.62 18.58 15.28 19.8 13.56 20.68C11.84 21.56 9.82 22 7.5 22H0.9ZM7.5 1.72H2.94V21.28H7.5C10.4 21.28 12.66 20.42 14.28 18.7C15.92 16.98 16.74 14.58 16.74 11.5C16.74 8.42 15.92 6.02 14.28 4.3C12.66 2.58 10.4 1.72 7.5 1.72ZM25.3336 22V0.999999H34.4836V2.47L29.2336 1.78C28.3136 1.66 27.6936 1.6 27.3736 1.6V10.75C27.6336 10.75 28.2536 10.72 29.2336 10.66L34.1536 10.36V11.74L29.2336 11.44C28.2536 11.38 27.6336 11.35 27.3736 11.35V21.4C27.7336 21.4 28.3636 21.34 29.2636 21.22L34.5736 20.53V22H25.3336ZM57.6009 19.42L57.4209 21.25C56.8609 21.49 56.1809 21.7 55.3809 21.88C54.5809 22.06 53.7709 22.19 52.9509 22.27C52.1309 22.37 51.4009 22.42 50.7609 22.42C49.1409 22.42 47.6409 22.15 46.2609 21.61C44.8809 21.05 43.6709 20.28 42.6309 19.3C41.6109 18.32 40.8109 17.17 40.2309 15.85C39.6509 14.51 39.3609 13.06 39.3609 11.5C39.3609 9.94 39.6509 8.5 40.2309 7.18C40.8109 5.84 41.6109 4.68 42.6309 3.7C43.6709 2.72 44.8809 1.96 46.2609 1.42C47.6409 0.859999 49.1409 0.579999 50.7609 0.579999C51.4209 0.579999 52.1609 0.629999 52.9809 0.729998C53.8009 0.829998 54.6009 0.969998 55.3809 1.15C56.1609 1.31 56.8209 1.5 57.3609 1.72L57.2109 3.4H57.0309C56.2909 2.72 55.3609 2.2 54.2409 1.84C53.1209 1.48 51.9609 1.3 50.7609 1.3C48.9609 1.3 47.3709 1.73 45.9909 2.59C44.6309 3.43 43.5609 4.62 42.7809 6.16C42.0209 7.68 41.6409 9.46 41.6409 11.5C41.6409 13.56 42.0209 15.35 42.7809 16.87C43.5609 18.39 44.6309 19.58 45.9909 20.44C47.3509 21.28 48.9409 21.7 50.7609 21.7C52.1209 21.7 53.3809 21.48 54.5409 21.04C55.7209 20.6 56.6809 20.06 57.4209 19.42H57.6009ZM61.5094 11.5C61.5094 9.96 61.7794 8.53 62.3194 7.21C62.8794 5.87 63.6494 4.71 64.6294 3.73C65.6294 2.73 66.7894 1.96 68.1094 1.42C69.4494 0.859999 70.8894 0.579999 72.4294 0.579999C73.9694 0.579999 75.3994 0.859999 76.7194 1.42C78.0594 1.96 79.2194 2.73 80.1994 3.73C81.1994 4.71 81.9694 5.87 82.5094 7.21C83.0694 8.53 83.3494 9.96 83.3494 11.5C83.3494 13.04 83.0694 14.48 82.5094 15.82C81.9694 17.14 81.1994 18.3 80.1994 19.3C79.2194 20.28 78.0594 21.05 76.7194 21.61C75.3994 22.15 73.9694 22.42 72.4294 22.42C70.8894 22.42 69.4494 22.15 68.1094 21.61C66.7894 21.05 65.6294 20.28 64.6294 19.3C63.6494 18.3 62.8794 17.14 62.3194 15.82C61.7794 14.48 61.5094 13.04 61.5094 11.5ZM63.7894 11.5C63.7894 13.54 64.1494 15.33 64.8694 16.87C65.5894 18.39 66.5994 19.58 67.8994 20.44C69.1994 21.28 70.7094 21.7 72.4294 21.7C74.1494 21.7 75.6594 21.28 76.9594 20.44C78.2594 19.58 79.2694 18.38 79.9894 16.84C80.7094 15.3 81.0694 13.52 81.0694 11.5C81.0694 9.48 80.7094 7.71 79.9894 6.19C79.2694 4.65 78.2594 3.45 76.9594 2.59C75.6594 1.73 74.1494 1.3 72.4294 1.3C70.7094 1.3 69.1994 1.73 67.8994 2.59C66.6194 3.43 65.6094 4.62 64.8694 6.16C64.1494 7.68 63.7894 9.46 63.7894 11.5ZM89.6402 0.999999H93.6602C95.7802 0.999999 97.4202 1.45 98.5802 2.35C99.7602 3.23 100.35 4.47 100.35 6.07C100.35 7.31 99.9802 8.34 99.2402 9.16C98.5202 9.98 97.4702 10.53 96.0902 10.81V10.99C97.4102 11.25 98.4902 11.87 99.3302 12.85C100.17 13.83 100.8 15.04 101.22 16.48C101.6 17.8 101.97 18.83 102.33 19.57C102.71 20.29 103.12 20.81 103.56 21.13C104.02 21.45 104.56 21.68 105.18 21.82V22H103.95C103.07 22 102.34 21.84 101.76 21.52C101.2 21.2 100.72 20.66 100.32 19.9C99.9202 19.14 99.5402 18.09 99.1802 16.75C98.6002 14.69 97.8302 13.23 96.8702 12.37C95.9102 11.51 94.7402 11.08 93.3602 11.08H93.1802V10.54H93.3602C96.5802 10.54 98.1902 9.06 98.1902 6.1C98.1902 3.18 96.6802 1.72 93.6602 1.72H91.6802V22H89.6402V0.999999ZM106.802 11.5C106.802 9.96 107.072 8.53 107.612 7.21C108.172 5.87 108.942 4.71 109.922 3.73C110.922 2.73 112.082 1.96 113.402 1.42C114.742 0.859999 116.182 0.579999 117.722 0.579999C119.262 0.579999 120.692 0.859999 122.012 1.42C123.352 1.96 124.512 2.73 125.492 3.73C126.492 4.71 127.262 5.87 127.802 7.21C128.362 8.53 128.642 9.96 128.642 11.5C128.642 13.04 128.362 14.48 127.802 15.82C127.262 17.14 126.492 18.3 125.492 19.3C124.512 20.28 123.352 21.05 122.012 21.61C120.692 22.15 119.262 22.42 117.722 22.42C116.182 22.42 114.742 22.15 113.402 21.61C112.082 21.05 110.922 20.28 109.922 19.3C108.942 18.3 108.172 17.14 107.612 15.82C107.072 14.48 106.802 13.04 106.802 11.5ZM109.082 11.5C109.082 13.54 109.442 15.33 110.162 16.87C110.882 18.39 111.892 19.58 113.192 20.44C114.492 21.28 116.002 21.7 117.722 21.7C119.442 21.7 120.952 21.28 122.252 20.44C123.552 19.58 124.562 18.38 125.282 16.84C126.002 15.3 126.362 13.52 126.362 11.5C126.362 9.48 126.002 7.71 125.282 6.19C124.562 4.65 123.552 3.45 122.252 2.59C120.952 1.73 119.442 1.3 117.722 1.3C116.002 1.3 114.492 1.73 113.192 2.59C111.912 3.43 110.902 4.62 110.162 6.16C109.442 7.68 109.082 9.46 109.082 11.5Z" />
</mask>
<path d="M0.9 22V0.999999H7.5C9.82 0.999999 11.84 1.44 13.56 2.32C15.28 3.2 16.62 4.43 17.58 6.01C18.54 7.57 19.02 9.4 19.02 11.5C19.02 13.6 18.54 15.44 17.58 17.02C16.62 18.58 15.28 19.8 13.56 20.68C11.84 21.56 9.82 22 7.5 22H0.9ZM7.5 1.72H2.94V21.28H7.5C10.4 21.28 12.66 20.42 14.28 18.7C15.92 16.98 16.74 14.58 16.74 11.5C16.74 8.42 15.92 6.02 14.28 4.3C12.66 2.58 10.4 1.72 7.5 1.72ZM25.3336 22V0.999999H34.4836V2.47L29.2336 1.78C28.3136 1.66 27.6936 1.6 27.3736 1.6V10.75C27.6336 10.75 28.2536 10.72 29.2336 10.66L34.1536 10.36V11.74L29.2336 11.44C28.2536 11.38 27.6336 11.35 27.3736 11.35V21.4C27.7336 21.4 28.3636 21.34 29.2636 21.22L34.5736 20.53V22H25.3336ZM57.6009 19.42L57.4209 21.25C56.8609 21.49 56.1809 21.7 55.3809 21.88C54.5809 22.06 53.7709 22.19 52.9509 22.27C52.1309 22.37 51.4009 22.42 50.7609 22.42C49.1409 22.42 47.6409 22.15 46.2609 21.61C44.8809 21.05 43.6709 20.28 42.6309 19.3C41.6109 18.32 40.8109 17.17 40.2309 15.85C39.6509 14.51 39.3609 13.06 39.3609 11.5C39.3609 9.94 39.6509 8.5 40.2309 7.18C40.8109 5.84 41.6109 4.68 42.6309 3.7C43.6709 2.72 44.8809 1.96 46.2609 1.42C47.6409 0.859999 49.1409 0.579999 50.7609 0.579999C51.4209 0.579999 52.1609 0.629999 52.9809 0.729998C53.8009 0.829998 54.6009 0.969998 55.3809 1.15C56.1609 1.31 56.8209 1.5 57.3609 1.72L57.2109 3.4H57.0309C56.2909 2.72 55.3609 2.2 54.2409 1.84C53.1209 1.48 51.9609 1.3 50.7609 1.3C48.9609 1.3 47.3709 1.73 45.9909 2.59C44.6309 3.43 43.5609 4.62 42.7809 6.16C42.0209 7.68 41.6409 9.46 41.6409 11.5C41.6409 13.56 42.0209 15.35 42.7809 16.87C43.5609 18.39 44.6309 19.58 45.9909 20.44C47.3509 21.28 48.9409 21.7 50.7609 21.7C52.1209 21.7 53.3809 21.48 54.5409 21.04C55.7209 20.6 56.6809 20.06 57.4209 19.42H57.6009ZM61.5094 11.5C61.5094 9.96 61.7794 8.53 62.3194 7.21C62.8794 5.87 63.6494 4.71 64.6294 3.73C65.6294 2.73 66.7894 1.96 68.1094 1.42C69.4494 0.859999 70.8894 0.579999 72.4294 0.579999C73.9694 0.579999 75.3994 0.859999 76.7194 1.42C78.0594 1.96 79.2194 2.73 80.1994 3.73C81.1994 4.71 81.9694 5.87 82.5094 7.21C83.0694 8.53 83.3494 9.96 83.3494 11.5C83.3494 13.04 83.0694 14.48 82.5094 15.82C81.9694 17.14 81.1994 18.3 80.1994 19.3C79.2194 20.28 78.0594 21.05 76.7194 21.61C75.3994 22.15 73.9694 22.42 72.4294 22.42C70.8894 22.42 69.4494 22.15 68.1094 21.61C66.7894 21.05 65.6294 20.28 64.6294 19.3C63.6494 18.3 62.8794 17.14 62.3194 15.82C61.7794 14.48 61.5094 13.04 61.5094 11.5ZM63.7894 11.5C63.7894 13.54 64.1494 15.33 64.8694 16.87C65.5894 18.39 66.5994 19.58 67.8994 20.44C69.1994 21.28 70.7094 21.7 72.4294 21.7C74.1494 21.7 75.6594 21.28 76.9594 20.44C78.2594 19.58 79.2694 18.38 79.9894 16.84C80.7094 15.3 81.0694 13.52 81.0694 11.5C81.0694 9.48 80.7094 7.71 79.9894 6.19C79.2694 4.65 78.2594 3.45 76.9594 2.59C75.6594 1.73 74.1494 1.3 72.4294 1.3C70.7094 1.3 69.1994 1.73 67.8994 2.59C66.6194 3.43 65.6094 4.62 64.8694 6.16C64.1494 7.68 63.7894 9.46 63.7894 11.5ZM89.6402 0.999999H93.6602C95.7802 0.999999 97.4202 1.45 98.5802 2.35C99.7602 3.23 100.35 4.47 100.35 6.07C100.35 7.31 99.9802 8.34 99.2402 9.16C98.5202 9.98 97.4702 10.53 96.0902 10.81V10.99C97.4102 11.25 98.4902 11.87 99.3302 12.85C100.17 13.83 100.8 15.04 101.22 16.48C101.6 17.8 101.97 18.83 102.33 19.57C102.71 20.29 103.12 20.81 103.56 21.13C104.02 21.45 104.56 21.68 105.18 21.82V22H103.95C103.07 22 102.34 21.84 101.76 21.52C101.2 21.2 100.72 20.66 100.32 19.9C99.9202 19.14 99.5402 18.09 99.1802 16.75C98.6002 14.69 97.8302 13.23 96.8702 12.37C95.9102 11.51 94.7402 11.08 93.3602 11.08H93.1802V10.54H93.3602C96.5802 10.54 98.1902 9.06 98.1902 6.1C98.1902 3.18 96.6802 1.72 93.6602 1.72H91.6802V22H89.6402V0.999999ZM106.802 11.5C106.802 9.96 107.072 8.53 107.612 7.21C108.172 5.87 108.942 4.71 109.922 3.73C110.922 2.73 112.082 1.96 113.402 1.42C114.742 0.859999 116.182 0.579999 117.722 0.579999C119.262 0.579999 120.692 0.859999 122.012 1.42C123.352 1.96 124.512 2.73 125.492 3.73C126.492 4.71 127.262 5.87 127.802 7.21C128.362 8.53 128.642 9.96 128.642 11.5C128.642 13.04 128.362 14.48 127.802 15.82C127.262 17.14 126.492 18.3 125.492 19.3C124.512 20.28 123.352 21.05 122.012 21.61C120.692 22.15 119.262 22.42 117.722 22.42C116.182 22.42 114.742 22.15 113.402 21.61C112.082 21.05 110.922 20.28 109.922 19.3C108.942 18.3 108.172 17.14 107.612 15.82C107.072 14.48 106.802 13.04 106.802 11.5ZM109.082 11.5C109.082 13.54 109.442 15.33 110.162 16.87C110.882 18.39 111.892 19.58 113.192 20.44C114.492 21.28 116.002 21.7 117.722 21.7C119.442 21.7 120.952 21.28 122.252 20.44C123.552 19.58 124.562 18.38 125.282 16.84C126.002 15.3 126.362 13.52 126.362 11.5C126.362 9.48 126.002 7.71 125.282 6.19C124.562 4.65 123.552 3.45 122.252 2.59C120.952 1.73 119.442 1.3 117.722 1.3C116.002 1.3 114.492 1.73 113.192 2.59C111.912 3.43 110.902 4.62 110.162 6.16C109.442 7.68 109.082 9.46 109.082 11.5Z" fill="#E99C28" />
<path d="M0.9 22H-0.0999997V23H0.9V22ZM0.9 0.999999V-1.43051e-06H-0.0999997V0.999999H0.9ZM13.56 2.32L13.1045 3.21025H13.1045L13.56 2.32ZM17.58 6.01L16.7254 6.52927L16.7283 6.5341L17.58 6.01ZM17.58 17.02L18.4317 17.5441L18.4346 17.5393L17.58 17.02ZM13.56 20.68L14.0155 21.5702H14.0155L13.56 20.68ZM2.94 1.72V0.719998H1.94V1.72H2.94ZM2.94 21.28H1.94V22.28H2.94V21.28ZM14.28 18.7L13.5562 18.0099L13.552 18.0144L14.28 18.7ZM14.28 4.3L13.552 4.98564L13.5563 4.99007L14.28 4.3ZM1.9 22V0.999999H-0.0999997V22H1.9ZM0.9 2H7.5V-1.43051e-06H0.9V2ZM7.5 2C9.69315 2 11.5511 2.41549 13.1045 3.21025L14.0155 1.42975C12.1289 0.464511 9.94685 -1.43051e-06 7.5 -1.43051e-06V2ZM13.1045 3.21025C14.6675 4.0099 15.866 5.11479 16.7254 6.52926L18.4346 5.49074C17.374 3.74521 15.8925 2.3901 14.0155 1.42975L13.1045 3.21025ZM16.7283 6.5341C17.5778 7.91448 18.02 9.55739 18.02 11.5H20.02C20.02 9.24261 19.5022 7.22552 18.4317 5.4859L16.7283 6.5341ZM18.02 11.5C18.02 13.4423 17.5779 15.0977 16.7254 16.5007L18.4346 17.5393C19.5021 15.7823 20.02 13.7577 20.02 11.5H18.02ZM16.7283 16.4959C15.8697 17.8912 14.6707 18.9884 13.1045 19.7898L14.0155 21.5702C15.8893 20.6116 17.3703 19.2688 18.4317 17.5441L16.7283 16.4959ZM13.1045 19.7898C11.5511 20.5845 9.69315 21 7.5 21V23C9.94685 23 12.1289 22.5355 14.0155 21.5702L13.1045 19.7898ZM7.5 21H0.9V23H7.5V21ZM7.5 0.719998H2.94V2.72H7.5V0.719998ZM1.94 1.72V21.28H3.94V1.72H1.94ZM2.94 22.28H7.5V20.28H2.94V22.28ZM7.5 22.28C10.6084 22.28 13.1574 21.3504 15.008 19.3856L13.552 18.0144C12.1626 19.4896 10.1916 20.28 7.5 20.28V22.28ZM15.0037 19.3901C16.8689 17.434 17.74 14.7582 17.74 11.5H15.74C15.74 14.4018 14.9711 16.526 13.5563 18.0099L15.0037 19.3901ZM17.74 11.5C17.74 8.24182 16.8689 5.56603 15.0037 3.60992L13.5563 4.99007C14.9711 6.47397 15.74 8.59818 15.74 11.5H17.74ZM15.008 3.61437C13.1574 1.64956 10.6084 0.719998 7.5 0.719998V2.72C10.1916 2.72 12.1626 3.51044 13.552 4.98563L15.008 3.61437ZM25.3336 22H24.3336V23H25.3336V22ZM25.3336 0.999999V-1.43051e-06H24.3336V0.999999H25.3336ZM34.4836 0.999999H35.4836V-1.43051e-06H34.4836V0.999999ZM34.4836 2.47L34.3533 3.46147L35.4836 3.61003V2.47H34.4836ZM29.2336 1.78L29.3639 0.788525L29.3629 0.788399L29.2336 1.78ZM27.3736 1.6V0.6H26.3736V1.6H27.3736ZM27.3736 10.75H26.3736V11.75H27.3736V10.75ZM29.2336 10.66L29.1727 9.66185L29.1725 9.66187L29.2336 10.66ZM34.1536 10.36H35.1536V9.29717L34.0927 9.36185L34.1536 10.36ZM34.1536 11.74L34.0927 12.7381L35.1536 12.8028V11.74H34.1536ZM29.2336 11.44L29.1725 12.4381L29.1727 12.4381L29.2336 11.44ZM27.3736 11.35V10.35H26.3736V11.35H27.3736ZM27.3736 21.4H26.3736V22.4H27.3736V21.4ZM29.2636 21.22L29.1347 20.2283L29.1314 20.2288L29.2636 21.22ZM34.5736 20.53H35.5736V19.3916L34.4447 19.5383L34.5736 20.53ZM34.5736 22V23H35.5736V22H34.5736ZM26.3336 22V0.999999H24.3336V22H26.3336ZM25.3336 2H34.4836V-1.43051e-06H25.3336V2ZM33.4836 0.999999V2.47H35.4836V0.999999H33.4836ZM34.6139 1.47853L29.3639 0.788526L29.1033 2.77147L34.3533 3.46147L34.6139 1.47853ZM29.3629 0.788399C28.4521 0.6696 27.7688 0.6 27.3736 0.6V2.6C27.6184 2.6 28.1751 2.6504 29.1043 2.7716L29.3629 0.788399ZM26.3736 1.6V10.75H28.3736V1.6H26.3736ZM27.3736 11.75C27.6708 11.75 28.3249 11.7175 29.2947 11.6581L29.1725 9.66187C28.1823 9.72249 27.5964 9.75 27.3736 9.75V11.75ZM29.2945 11.6581L34.2145 11.3581L34.0927 9.36185L29.1727 9.66185L29.2945 11.6581ZM33.1536 10.36V11.74H35.1536V10.36H33.1536ZM34.2145 10.7419L29.2945 10.4419L29.1727 12.4381L34.0927 12.7381L34.2145 10.7419ZM29.2947 10.4419C28.3249 10.3825 27.6708 10.35 27.3736 10.35V12.35C27.5964 12.35 28.1823 12.3775 29.1725 12.4381L29.2947 10.4419ZM26.3736 11.35V21.4H28.3736V11.35H26.3736ZM27.3736 22.4C27.8078 22.4 28.4981 22.3309 29.3958 22.2112L29.1314 20.2288C28.2291 20.3491 27.6594 20.4 27.3736 20.4V22.4ZM29.3925 22.2117L34.7025 21.5217L34.4447 19.5383L29.1347 20.2283L29.3925 22.2117ZM33.5736 20.53V22H35.5736V20.53H33.5736ZM34.5736 21H25.3336V23H34.5736V21ZM57.6009 19.42L58.5961 19.5179L58.7041 18.42H57.6009V19.42ZM57.4209 21.25L57.8149 22.1691L58.3583 21.9363L58.4161 21.3479L57.4209 21.25ZM55.3809 21.88L55.1614 20.9044L55.3809 21.88ZM52.9509 22.27L52.8538 21.2747L52.8418 21.2759L52.8299 21.2774L52.9509 22.27ZM46.2609 21.61L45.8849 22.5367L45.8965 22.5412L46.2609 21.61ZM42.6309 19.3L41.9381 20.0211L41.9451 20.0278L42.6309 19.3ZM40.2309 15.85L39.3132 16.2472L39.3154 16.2523L40.2309 15.85ZM40.2309 7.18L41.1465 7.58228L41.1487 7.57722L40.2309 7.18ZM42.6309 3.7L41.9451 2.97218L41.9381 2.97889L42.6309 3.7ZM46.2609 1.42L46.6254 2.35131L46.637 2.34661L46.2609 1.42ZM55.3809 1.15L55.1561 2.12439L55.168 2.12714L55.18 2.1296L55.3809 1.15ZM57.3609 1.72L58.357 1.80893L58.4227 1.07276L57.7382 0.793906L57.3609 1.72ZM57.2109 3.4V4.4H58.1256L58.207 3.48893L57.2109 3.4ZM57.0309 3.4L56.3543 4.13633L56.6413 4.4H57.0309V3.4ZM45.9909 2.59L46.5164 3.4408L46.5198 3.43869L45.9909 2.59ZM42.7809 6.16L41.8888 5.70815L41.8865 5.71279L42.7809 6.16ZM42.7809 16.87L41.8865 17.3172L41.8912 17.3266L42.7809 16.87ZM45.9909 20.44L45.4564 21.2852L45.4654 21.2908L45.9909 20.44ZM54.5409 21.04L54.1916 20.103L54.1863 20.105L54.5409 21.04ZM57.4209 19.42V18.42H57.0485L56.7668 18.6636L57.4209 19.42ZM56.6057 19.3221L56.4257 21.1521L58.4161 21.3479L58.5961 19.5179L56.6057 19.3221ZM57.027 20.3309C56.5388 20.5401 55.9207 20.7335 55.1614 20.9044L55.6004 22.8556C56.4412 22.6665 57.1831 22.4399 57.8149 22.1691L57.027 20.3309ZM55.1614 20.9044C54.402 21.0753 53.6329 21.1987 52.8538 21.2747L53.048 23.2653C53.909 23.1813 54.7599 23.0447 55.6004 22.8556L55.1614 20.9044ZM52.8299 21.2774C52.0392 21.3738 51.3508 21.42 50.7609 21.42V23.42C51.451 23.42 52.2227 23.3662 53.072 23.2626L52.8299 21.2774ZM50.7609 21.42C49.254 21.42 47.8788 21.1693 46.6253 20.6788L45.8965 22.5412C47.403 23.1307 49.0279 23.42 50.7609 23.42V21.42ZM46.637 20.6834C45.3667 20.1679 44.2629 19.4638 43.3167 18.5722L41.9451 20.0278C43.079 21.0962 44.3952 21.9321 45.8849 22.5366L46.637 20.6834ZM43.3238 18.5789C42.4 17.6914 41.6748 16.6503 41.1465 15.4477L39.3154 16.2523C39.947 17.6897 40.8219 18.9486 41.9381 20.0211L43.3238 18.5789ZM41.1487 15.4528C40.6266 14.2466 40.3609 12.9328 40.3609 11.5H38.3609C38.3609 13.1872 38.6753 14.7734 39.3132 16.2472L41.1487 15.4528ZM40.3609 11.5C40.3609 10.067 40.6266 8.76537 41.1465 7.58227L39.3154 6.77773C38.6753 8.23463 38.3609 9.81299 38.3609 11.5H40.3609ZM41.1487 7.57722C41.6777 6.35502 42.4026 5.30615 43.3238 4.4211L41.9381 2.97889C40.8193 4.05384 39.9442 5.32498 39.3132 6.78278L41.1487 7.57722ZM43.3167 4.42779C44.2602 3.53879 45.36 2.84637 46.6253 2.35124L45.8965 0.488756C44.4019 1.07363 43.0817 1.9012 41.9451 2.97221L43.3167 4.42779ZM46.637 2.34661C47.8874 1.83918 49.2585 1.58 50.7609 1.58V-0.420002C49.0234 -0.420002 47.3945 -0.119184 45.8849 0.493386L46.637 2.34661ZM50.7609 1.58C51.3719 1.58 52.0705 1.62638 52.8599 1.72264L53.102 -0.262648C52.2513 -0.366386 51.47 -0.420002 50.7609 -0.420002V1.58ZM52.8599 1.72264C53.6461 1.81852 54.4114 1.95254 55.1561 2.12439L55.6058 0.175607C54.7905 -0.0125456 53.9558 -0.158527 53.102 -0.262648L52.8599 1.72264ZM55.18 2.1296C55.9199 2.28138 56.517 2.45598 56.9836 2.64609L57.7382 0.793906C57.1249 0.544014 56.402 0.338622 55.5819 0.170396L55.18 2.1296ZM56.3649 1.63107L56.2149 3.31107L58.207 3.48893L58.357 1.80893L56.3649 1.63107ZM57.2109 2.4H57.0309V4.4H57.2109V2.4ZM57.7076 2.66367C56.8444 1.87051 55.7813 1.28474 54.5469 0.88797L53.9349 2.79203C54.9405 3.11526 55.7375 3.56949 56.3543 4.13633L57.7076 2.66367ZM54.5469 0.88797C53.3261 0.495544 52.0627 0.299998 50.7609 0.299998V2.3C51.8592 2.3 52.9158 2.46445 53.9349 2.79203L54.5469 0.88797ZM50.7609 0.299998C48.7946 0.299998 47.0174 0.772036 45.462 1.74131L46.5198 3.43869C47.7245 2.68796 49.1273 2.3 50.7609 2.3V0.299998ZM45.4654 1.7392C43.9364 2.68364 42.7451 4.01759 41.8888 5.70816L43.673 6.61184C44.3768 5.22241 45.3255 4.17636 46.5164 3.4408L45.4654 1.7392ZM41.8865 5.71279C41.0445 7.39678 40.6409 9.33554 40.6409 11.5H42.6409C42.6409 9.58445 42.9974 7.96322 43.6754 6.60721L41.8865 5.71279ZM40.6409 11.5C40.6409 13.6827 41.0439 15.632 41.8865 17.3172L43.6754 16.4228C42.998 15.0681 42.6409 13.4373 42.6409 11.5H40.6409ZM41.8912 17.3266C42.7476 18.9953 43.9361 20.3238 45.4565 21.2852L46.5254 19.5948C45.3258 18.8362 44.3743 17.7847 43.6706 16.4134L41.8912 17.3266ZM45.4654 21.2908C47.0044 22.2413 48.7816 22.7 50.7609 22.7V20.7C49.1002 20.7 47.6975 20.3187 46.5164 19.5892L45.4654 21.2908ZM50.7609 22.7C52.2305 22.7 53.6119 22.4619 54.8956 21.975L54.1863 20.105C53.15 20.4981 52.0114 20.7 50.7609 20.7V22.7ZM54.8903 21.977C56.1514 21.5068 57.2234 20.913 58.0751 20.1764L56.7668 18.6636C56.1385 19.207 55.2905 19.6932 54.1916 20.103L54.8903 21.977ZM57.4209 20.42H57.6009V18.42H57.4209V20.42ZM62.3194 7.21L61.3967 6.8244L61.3938 6.83137L62.3194 7.21ZM64.6294 3.73L63.9223 3.02289L64.6294 3.73ZM68.1094 1.42L68.488 2.34557L68.495 2.34267L68.1094 1.42ZM76.7194 1.42L76.3288 2.34058L76.3372 2.34412L76.3456 2.34752L76.7194 1.42ZM80.1994 3.73L79.4852 4.42993L79.4922 4.43714L79.4994 4.44421L80.1994 3.73ZM82.5094 7.21L81.5819 7.58378L81.5853 7.59219L81.5888 7.60055L82.5094 7.21ZM82.5094 15.82L81.5867 15.4344L81.5838 15.4414L82.5094 15.82ZM80.1994 19.3L79.4923 18.5929L80.1994 19.3ZM76.7194 21.61L77.098 22.5356L77.105 22.5327L76.7194 21.61ZM68.1094 21.61L67.7188 22.5306L67.7272 22.5341L67.7356 22.5375L68.1094 21.61ZM64.6294 19.3L63.9152 19.9999L63.9222 20.0071L63.9294 20.0142L64.6294 19.3ZM62.3194 15.82L61.3919 16.1938L61.3952 16.2022L61.3988 16.2105L62.3194 15.82ZM64.8694 16.87L63.9635 17.2935L63.9656 17.2981L64.8694 16.87ZM67.8994 20.44L67.3476 21.2741L67.3567 21.2799L67.8994 20.44ZM76.9594 20.44L77.5021 21.28L77.5111 21.274L76.9594 20.44ZM79.9894 16.84L80.8953 17.2635L79.9894 16.84ZM79.9894 6.19L79.0835 6.61353L79.0856 6.61809L79.9894 6.19ZM76.9594 2.59L76.4076 3.42402V3.42402L76.9594 2.59ZM67.8994 2.59L68.448 3.42605L68.4511 3.42402L67.8994 2.59ZM64.8694 6.16L63.968 5.72688L63.9656 5.73191L64.8694 6.16ZM62.5094 11.5C62.5094 10.0794 62.7579 8.77915 63.2449 7.58863L61.3938 6.83137C60.8009 8.28085 60.5094 9.8406 60.5094 11.5H62.5094ZM63.242 7.59559C63.7543 6.36993 64.453 5.32062 65.3365 4.43711L63.9223 3.02289C62.8458 4.09938 62.0045 5.37007 61.3967 6.82441L63.242 7.59559ZM65.3365 4.43711C66.2418 3.53182 67.2898 2.8357 68.488 2.34555L67.7307 0.494452C66.2889 1.0843 65.017 1.92818 63.9223 3.02289L65.3365 4.43711ZM68.495 2.34267C69.7056 1.83675 71.0136 1.58 72.4294 1.58V-0.420002C70.7651 -0.420002 69.1932 -0.116753 67.7238 0.49733L68.495 2.34267ZM72.4294 1.58C73.8452 1.58 75.1413 1.83678 76.3288 2.34058L77.1099 0.499417C75.6575 -0.11678 74.0935 -0.420002 72.4294 -0.420002V1.58ZM76.3456 2.34752C77.5618 2.83763 78.6048 3.53163 79.4852 4.42993L80.9136 3.03007C79.8339 1.92837 78.5569 1.08237 77.0932 0.49248L76.3456 2.34752ZM79.4994 4.44421C80.3978 5.32455 81.0917 6.36757 81.5819 7.58378L83.4369 6.83622C82.847 5.37243 82.001 4.09545 80.8993 3.01579L79.4994 4.44421ZM81.5888 7.60055C82.0926 8.78809 82.3494 10.0841 82.3494 11.5H84.3494C84.3494 9.83586 84.0462 8.27191 83.43 6.81945L81.5888 7.60055ZM82.3494 11.5C82.3494 12.9157 82.0926 14.2238 81.5867 15.4344L83.432 16.2056C84.0461 14.7362 84.3494 13.1643 84.3494 11.5H82.3494ZM81.5838 15.4414C81.0937 16.6395 80.3976 17.6876 79.4923 18.5929L80.9065 20.0071C82.0012 18.9124 82.8451 17.6405 83.4349 16.1986L81.5838 15.4414ZM79.4923 18.5929C78.6088 19.4764 77.5594 20.1751 76.3338 20.6873L77.105 22.5327C78.5593 21.9249 79.83 21.0836 80.9065 20.0071L79.4923 18.5929ZM76.3407 20.6845C75.1502 21.1715 73.85 21.42 72.4294 21.42V23.42C74.0888 23.42 75.6485 23.1285 77.098 22.5355L76.3407 20.6845ZM72.4294 21.42C71.0089 21.42 69.6967 21.1715 68.4832 20.6825L67.7356 22.5375C69.2021 23.1285 70.7698 23.42 72.4294 23.42V21.42ZM68.4999 20.6894C67.2922 20.1771 66.2378 19.4761 65.3293 18.5858L63.9294 20.0142C65.0209 21.0839 66.2865 21.9229 67.7188 22.5306L68.4999 20.6894ZM65.3436 18.6001C64.4532 17.6916 63.7523 16.6372 63.24 15.4294L61.3988 16.2105C62.0064 17.6428 62.8455 18.9084 63.9152 19.9999L65.3436 18.6001ZM63.2469 15.4462C62.7579 14.2327 62.5094 12.9205 62.5094 11.5H60.5094C60.5094 13.1595 60.8009 14.7273 61.3919 16.1938L63.2469 15.4462ZM62.7894 11.5C62.7894 13.6575 63.1703 15.5971 63.9635 17.2935L65.7753 16.4465C65.1284 15.0629 64.7894 13.4225 64.7894 11.5H62.7894ZM63.9656 17.2981C64.7573 18.9695 65.8835 20.3054 67.3476 21.274L68.4511 19.606C67.3153 18.8546 66.4214 17.8105 65.7731 16.4419L63.9656 17.2981ZM67.3567 21.2799C68.8361 22.2358 70.539 22.7 72.4294 22.7V20.7C70.8797 20.7 69.5627 20.3242 68.4421 19.6001L67.3567 21.2799ZM72.4294 22.7C74.3197 22.7 76.0227 22.2358 77.5021 21.2799L76.4167 19.6001C75.2961 20.3242 73.979 20.7 72.4294 20.7V22.7ZM77.5111 21.274C78.9785 20.3033 80.1046 18.9547 80.8953 17.2635L79.0835 16.4165C78.4342 17.8053 77.5402 18.8567 76.4076 19.606L77.5111 21.274ZM80.8953 17.2635C81.6878 15.5683 82.0694 13.6391 82.0694 11.5H80.0694C80.0694 13.4009 79.7309 15.0317 79.0835 16.4165L80.8953 17.2635ZM82.0694 11.5C82.0694 9.36128 81.688 7.43992 80.8931 5.76191L79.0856 6.61809C79.7308 7.98007 80.0694 9.59872 80.0694 11.5H82.0694ZM80.8953 5.76647C80.1046 4.07529 78.9785 2.72672 77.5111 1.75598L76.4076 3.42402C77.5402 4.17328 78.4342 5.22471 79.0835 6.61353L80.8953 5.76647ZM77.5111 1.75598C76.0307 0.776635 74.3245 0.299998 72.4294 0.299998V2.3C73.9743 2.3 75.288 2.68336 76.4076 3.42402L77.5111 1.75598ZM72.4294 0.299998C70.5343 0.299998 68.828 0.776635 67.3476 1.75598L68.4511 3.42402C69.5707 2.68336 70.8845 2.3 72.4294 2.3V0.299998ZM67.3507 1.75395C65.9016 2.70495 64.7774 4.04253 63.968 5.72689L65.7707 6.59311C66.4413 5.19747 67.3372 4.15505 68.448 3.42605L67.3507 1.75395ZM63.9656 5.73191C63.1702 7.41115 62.7894 9.34292 62.7894 11.5H64.7894C64.7894 9.57708 65.1285 7.94885 65.7731 6.58809L63.9656 5.73191ZM89.6402 0.999999V-1.43051e-06H88.6402V0.999999H89.6402ZM98.5802 2.35L97.9672 3.14008L97.9748 3.14593L97.9824 3.15163L98.5802 2.35ZM99.2402 9.16L98.4978 8.48997L98.4888 8.5002L99.2402 9.16ZM96.0902 10.81L95.8914 9.82997L95.0902 9.99252V10.81H96.0902ZM96.0902 10.99H95.0902V11.8122L95.897 11.9711L96.0902 10.99ZM99.3302 12.85L98.571 13.5008L99.3302 12.85ZM101.22 16.48L102.181 16.2034L102.18 16.2L101.22 16.48ZM102.33 19.57L101.431 20.0075L101.438 20.0222L101.446 20.0368L102.33 19.57ZM103.56 21.13L102.972 21.9387L102.981 21.9449L102.989 21.9509L103.56 21.13ZM105.18 21.82H106.18V21.0206L105.4 20.8446L105.18 21.82ZM105.18 22V23H106.18V22H105.18ZM101.76 21.52L101.264 22.3882L101.271 22.392L101.277 22.3956L101.76 21.52ZM100.32 19.9L99.4353 20.3657L100.32 19.9ZM99.1802 16.75L100.146 16.4905L100.143 16.479L99.1802 16.75ZM96.8702 12.37L96.203 13.1148L96.8702 12.37ZM93.1802 11.08H92.1802V12.08H93.1802V11.08ZM93.1802 10.54V9.54H92.1802V10.54H93.1802ZM91.6802 1.72V0.719998H90.6802V1.72H91.6802ZM91.6802 22V23H92.6802V22H91.6802ZM89.6402 22H88.6402V23H89.6402V22ZM89.6402 2H93.6602V-1.43051e-06H89.6402V2ZM93.6602 2C95.6537 2 97.0455 2.42492 97.9672 3.14008L99.1932 1.55991C97.795 0.475079 95.9068 -1.43051e-06 93.6602 -1.43051e-06V2ZM97.9824 3.15163C98.8849 3.82464 99.3502 4.75389 99.3502 6.07H101.35C101.35 4.18611 100.636 2.63536 99.1781 1.54837L97.9824 3.15163ZM99.3502 6.07C99.3502 7.09514 99.0514 7.87666 98.4978 8.49003L99.9826 9.82996C100.909 8.80334 101.35 7.52486 101.35 6.07H99.3502ZM98.4888 8.5002C97.9501 9.11365 97.1197 9.58074 95.8914 9.82997L96.2891 11.79C97.8207 11.4793 99.0903 10.8463 99.9917 9.8198L98.4888 8.5002ZM95.0902 10.81V10.99H97.0902V10.81H95.0902ZM95.897 11.9711C97.0066 12.1897 97.8837 12.699 98.571 13.5008L100.089 12.1992C99.0968 11.041 97.8139 10.3103 96.2835 10.0089L95.897 11.9711ZM98.571 13.5008C99.3047 14.3567 99.8736 15.4345 100.26 16.76L102.18 16.2C101.727 14.6455 101.036 13.3033 100.089 12.1992L98.571 13.5008ZM100.259 16.7566C100.646 18.1006 101.035 19.1929 101.431 20.0075L103.229 19.1325C102.906 18.4671 102.554 17.4994 102.181 16.2034L100.259 16.7566ZM101.446 20.0368C101.865 20.8305 102.363 21.4954 102.972 21.9387L104.148 20.3213C103.878 20.1246 103.556 19.7495 103.215 19.1032L101.446 20.0368ZM102.989 21.9509C103.568 22.3538 104.231 22.6308 104.96 22.7954L105.4 20.8446C104.89 20.7292 104.472 20.5462 104.131 20.3091L102.989 21.9509ZM104.18 21.82V22H106.18V21.82H104.18ZM105.18 21H103.95V23H105.18V21ZM103.95 21C103.186 21 102.635 20.8604 102.243 20.6444L101.277 22.3956C102.046 22.8196 102.955 23 103.95 23V21ZM102.256 20.6518C101.908 20.4527 101.545 20.0803 101.205 19.4343L99.4353 20.3657C99.8953 21.2397 100.492 21.9473 101.264 22.3882L102.256 20.6518ZM101.205 19.4343C100.854 18.7673 100.497 17.797 100.146 16.4905L98.2145 17.0095C98.5835 18.383 98.9864 19.5127 99.4353 20.3657L101.205 19.4343ZM100.143 16.479C99.5418 14.3443 98.7041 12.6703 97.5375 11.6252L96.203 13.1148C96.9563 13.7897 97.6587 15.0357 98.2177 17.021L100.143 16.479ZM97.5375 11.6252C96.3804 10.5886 94.9675 10.08 93.3602 10.08V12.08C94.5129 12.08 95.44 12.4314 96.203 13.1148L97.5375 11.6252ZM93.3602 10.08H93.1802V12.08H93.3602V10.08ZM94.1802 11.08V10.54H92.1802V11.08H94.1802ZM93.1802 11.54H93.3602V9.54H93.1802V11.54ZM93.3602 11.54C95.1045 11.54 96.5992 11.1409 97.6595 10.1662C98.7358 9.17685 99.1902 7.7568 99.1902 6.1H97.1902C97.1902 7.4032 96.8397 8.20315 96.306 8.69379C95.7563 9.19908 94.836 9.54 93.3602 9.54V11.54ZM99.1902 6.1C99.1902 4.47714 98.7688 3.07837 97.7528 2.09609C96.7432 1.11987 95.3161 0.719998 93.6602 0.719998V2.72C95.0244 2.72 95.8623 3.05013 96.3626 3.53391C96.8567 4.01163 97.1902 4.80286 97.1902 6.1H99.1902ZM93.6602 0.719998H91.6802V2.72H93.6602V0.719999ZM90.6802 1.72V22H92.6802V1.72H90.6802ZM91.6802 21H89.6402V23H91.6802V21ZM90.6402 22V0.999999H88.6402V22H90.6402ZM107.612 7.21L106.69 6.8244L106.687 6.83137L107.612 7.21ZM109.922 3.73L109.215 3.02289L109.922 3.73ZM113.402 1.42L113.781 2.34557L113.788 2.34267L113.402 1.42ZM122.012 1.42L121.622 2.34058L121.63 2.34412L121.639 2.34752L122.012 1.42ZM125.492 3.73L124.778 4.42993L124.785 4.43714L124.792 4.44421L125.492 3.73ZM127.802 7.21L126.875 7.58378L126.878 7.59219L126.882 7.60055L127.802 7.21ZM127.802 15.82L126.88 15.4344L126.877 15.4414L127.802 15.82ZM125.492 19.3L124.785 18.5929L125.492 19.3ZM122.012 21.61L122.391 22.5356L122.398 22.5327L122.012 21.61ZM113.402 21.61L113.012 22.5306L113.02 22.5341L113.029 22.5375L113.402 21.61ZM109.922 19.3L109.208 19.9999L109.215 20.0071L109.222 20.0142L109.922 19.3ZM107.612 15.82L106.685 16.1938L106.688 16.2022L106.692 16.2105L107.612 15.82ZM110.162 16.87L109.256 17.2935L109.259 17.2981L110.162 16.87ZM113.192 20.44L112.641 21.2741L112.65 21.2799L113.192 20.44ZM122.252 20.44L122.795 21.28L122.804 21.274L122.252 20.44ZM125.282 16.84L126.188 17.2635L125.282 16.84ZM125.282 6.19L124.376 6.61353L124.379 6.61809L125.282 6.19ZM122.252 2.59L121.701 3.42402V3.42402L122.252 2.59ZM113.192 2.59L113.741 3.42605L113.744 3.42402L113.192 2.59ZM110.162 6.16L109.261 5.72688L109.259 5.73191L110.162 6.16ZM107.802 11.5C107.802 10.0794 108.051 8.77915 108.538 7.58863L106.687 6.83137C106.094 8.28085 105.802 9.8406 105.802 11.5H107.802ZM108.535 7.59559C109.047 6.36993 109.746 5.32062 110.629 4.43711L109.215 3.02289C108.139 4.09938 107.297 5.37007 106.69 6.82441L108.535 7.59559ZM110.629 4.43711C111.535 3.53182 112.583 2.8357 113.781 2.34555L113.024 0.494452C111.582 1.0843 110.31 1.92818 109.215 3.02289L110.629 4.43711ZM113.788 2.34267C114.999 1.83675 116.307 1.58 117.722 1.58V-0.420002C116.058 -0.420002 114.486 -0.116753 113.017 0.49733L113.788 2.34267ZM117.722 1.58C119.138 1.58 120.434 1.83678 121.622 2.34058L122.403 0.499417C120.95 -0.11678 119.386 -0.420002 117.722 -0.420002V1.58ZM121.639 2.34752C122.855 2.83763 123.898 3.53163 124.778 4.42993L126.207 3.03007C125.127 1.92837 123.85 1.08237 122.386 0.49248L121.639 2.34752ZM124.792 4.44421C125.691 5.32455 126.385 6.36757 126.875 7.58378L128.73 6.83622C128.14 5.37243 127.294 4.09545 126.192 3.01579L124.792 4.44421ZM126.882 7.60055C127.386 8.78809 127.642 10.0841 127.642 11.5H129.642C129.642 9.83586 129.339 8.27191 128.723 6.81945L126.882 7.60055ZM127.642 11.5C127.642 12.9157 127.386 14.2238 126.88 15.4344L128.725 16.2056C129.339 14.7362 129.642 13.1643 129.642 11.5H127.642ZM126.877 15.4414C126.387 16.6395 125.691 17.6876 124.785 18.5929L126.199 20.0071C127.294 18.9124 128.138 17.6405 128.728 16.1986L126.877 15.4414ZM124.785 18.5929C123.902 19.4764 122.852 20.1751 121.627 20.6873L122.398 22.5327C123.852 21.9249 125.123 21.0836 126.199 20.0071L124.785 18.5929ZM121.634 20.6845C120.443 21.1715 119.143 21.42 117.722 21.42V23.42C119.382 23.42 120.941 23.1285 122.391 22.5355L121.634 20.6845ZM117.722 21.42C116.302 21.42 114.99 21.1715 113.776 20.6825L113.029 22.5375C114.495 23.1285 116.063 23.42 117.722 23.42V21.42ZM113.793 20.6894C112.585 20.1771 111.531 19.4761 110.622 18.5858L109.222 20.0142C110.314 21.0839 111.58 21.9229 113.012 22.5306L113.793 20.6894ZM110.637 18.6001C109.746 17.6916 109.045 16.6372 108.533 15.4294L106.692 16.2105C107.299 17.6428 108.138 18.9084 109.208 19.9999L110.637 18.6001ZM108.54 15.4462C108.051 14.2327 107.802 12.9205 107.802 11.5H105.802C105.802 13.1595 106.094 14.7273 106.685 16.1938L108.54 15.4462ZM108.082 11.5C108.082 13.6575 108.463 15.5971 109.256 17.2935L111.068 16.4465C110.421 15.0629 110.082 13.4225 110.082 11.5H108.082ZM109.259 17.2981C110.05 18.9695 111.176 20.3054 112.641 21.274L113.744 19.606C112.608 18.8546 111.714 17.8105 111.066 16.4419L109.259 17.2981ZM112.65 21.2799C114.129 22.2358 115.832 22.7 117.722 22.7V20.7C116.173 20.7 114.856 20.3242 113.735 19.6001L112.65 21.2799ZM117.722 22.7C119.613 22.7 121.316 22.2358 122.795 21.2799L121.71 19.6001C120.589 20.3242 119.272 20.7 117.722 20.7V22.7ZM122.804 21.274C124.271 20.3033 125.398 18.9547 126.188 17.2635L124.376 16.4165C123.727 17.8053 122.833 18.8567 121.701 19.606L122.804 21.274ZM126.188 17.2635C126.981 15.5683 127.362 13.6391 127.362 11.5H125.362C125.362 13.4009 125.024 15.0317 124.376 16.4165L126.188 17.2635ZM127.362 11.5C127.362 9.36128 126.981 7.43992 126.186 5.76191L124.379 6.
L124.379 6.61809C125.024 7.98007 125.362 9.59872 125.362 11.5H127.362Z" stroke="#E99C28" mask="url(#path-1-outside-1_8_21)"/>
        </svg>
    